<svg xmlns="http://www.w3.org/2000/svg" viewBox="0 0 48 48" fill="none">
  <!-- Cloud shape -->
  <path d="M38 28a6 6 0 0 0-5.68-6A10 10 0 0 0 13 24a8 8 0 1 0 0 16h23a6 6 0 0 0 2-11.66z" fill="#2563eb"/>
  <!-- Gear/cog for DevOps -->
  <circle cx="26" cy="22" r="4" fill="#1d4ed8"/>
  <path d="M26 16v-2M26 30v-2M20 22h-2M34 22h-2M21.76 17.76l-1.42-1.42M31.66 27.66l-1.42-1.42M21.76 26.24l-1.42 1.42M31.66 16.34l-1.42 1.42" stroke="#1d4ed8" stroke-width="2" stroke-linecap="round"/>
  <!-- Infinity loop for continuous -->
  <path d="M18 32c-2 0-3.5-1.5-3.5-3.5S16 25 18 25s2.5 1.5 4 3 2 3 4 3 3.5-1.5 3.5-3.5S28 25 26 25s-2.5 1.5-4 3-2 3-4 3z" stroke="#ffffff" stroke-width="1.5" stroke-linecap="round" fill="none"/>
</svg>
